<svg width="17" height="22" viewBox="0 0 17 22" fill="none" xmlns="http://www.w3.org/2000/svg">
<path d="M3.01662 0.508283C2.4685 0.508283 1.94284 0.72602 1.55526 1.1136C1.16769 1.50117 0.949951 2.02684 0.949951 2.57495V19.2833C0.949949 19.5543 1.00346 19.8226 1.10743 20.0729C1.21139 20.3232 1.36375 20.5505 1.55577 20.7417C1.74778 20.9329 1.97568 21.0844 2.22637 21.1873C2.47706 21.2903 2.74561 21.3427 3.01662 21.3416H16.5583V0.508283H3.01662ZM15.5166 20.5083H3.27495C2.98023 20.5083 2.69746 20.3918 2.48828 20.1842C2.2791 19.9766 2.16048 19.6947 2.15828 19.3999V18.7333C2.15828 18.4371 2.27593 18.1531 2.48535 17.9437C2.69476 17.7343 2.97879 17.6166 3.27495 17.6166H15.5499L15.5166 20.5083Z" fill="#25315B"/>
</svg>
