<svg width="17" height="17" viewBox="0 0 17 17" fill="none" xmlns="http://www.w3.org/2000/svg">
<path d="M12.8533 0.333328H3.81333C3.31256 0.333328 2.81669 0.431963 2.35403 0.623601C1.89138 0.815239 1.471 1.09613 1.1169 1.45023C0.401761 2.16537 0 3.1353 0 4.14666V13.1867C0 14.198 0.401761 15.168 1.1169 15.8831C1.471 16.2372 1.89138 16.5181 2.35403 16.7097C2.81669 16.9014 3.31256 17 3.81333 17H12.8533C13.8647 17 14.8346 16.5982 15.5498 15.8831C16.2649 15.168 16.6667 14.198 16.6667 13.1867V4.14666C16.6667 3.1353 16.2649 2.16537 15.5498 1.45023C14.8346 0.735089 13.8647 0.333328 12.8533 0.333328ZM7.33333 13.9267L1.73333 8.83999L2.94667 7.50666L7.16667 11.3333L13.9067 3.33333L15.28 4.49999L7.33333 13.9267Z" fill="#25315B"/>
</svg>
