<svg width="20" height="20" viewBox="0 0 20 20" fill="none" xmlns="http://www.w3.org/2000/svg">
<path d="M19.0909 7.27273H17.7159C17.6196 7.00073 17.5089 6.73376 17.3839 6.47297L18.3567 5.50024C18.7117 5.14527 18.7117 4.56964 18.3567 4.21461L15.7855 1.64333C15.6149 1.47285 15.3837 1.37703 15.1426 1.37703C14.9015 1.37703 14.6703 1.47279 14.4998 1.64333L13.527 2.61606C13.2662 2.49121 12.9993 2.38042 12.7273 2.28418V0.909091C12.7273 0.40703 12.3202 0 11.8182 0H8.18182C7.67976 0 7.27273 0.40703 7.27273 0.909091V2.28418C7.00073 2.38042 6.73376 2.49121 6.47303 2.61606L5.50024 1.64333C5.14527 1.2883 4.56964 1.2883 4.21461 1.64333L1.64327 4.21455C1.47273 4.38503 1.37697 4.61624 1.37697 4.85739C1.37697 5.09849 1.47273 5.3297 1.64327 5.50018L2.616 6.47297C2.49115 6.73376 2.38042 7.00073 2.28418 7.27273H0.909091C0.40703 7.27273 0 7.67976 0 8.18182V11.8182C0 12.3202 0.40703 12.7273 0.909091 12.7273H2.28418C2.38042 12.9993 2.49115 13.2662 2.616 13.527L1.64327 14.4998C1.47273 14.6703 1.37697 14.9015 1.37697 15.1426C1.37697 15.3838 1.47273 15.615 1.64327 15.7855L4.21467 18.3567C4.5697 18.7117 5.14527 18.7117 5.5003 18.3567L6.47309 17.384C6.73382 17.5089 7.00079 17.6196 7.27273 17.7159V19.0909C7.27273 19.593 7.67976 20 8.18182 20H11.8182C12.3202 20 12.7273 19.593 12.7273 19.0909V17.7158C12.9993 17.6196 13.2662 17.5088 13.527 17.3839L14.4998 18.3567C14.8548 18.7116 15.4304 18.7117 15.7855 18.3567L18.3567 15.7854C18.7118 15.4304 18.7118 14.8548 18.3567 14.4998L17.384 13.527C17.5089 13.2662 17.6197 12.9992 17.7159 12.7273H19.0909C19.593 12.7273 20 12.3202 20 11.8182V8.18182C20 7.67976 19.593 7.27273 19.0909 7.27273ZM10 13.6364C7.99491 13.6364 6.36364 12.0051 6.36364 10C6.36364 7.99491 7.99491 6.36364 10 6.36364C12.0051 6.36364 13.6364 7.99491 13.6364 10C13.6364 12.0051 12.0051 13.6364 10 13.6364Z" fill="#25315B"/>
</svg>
