<svg width="16" height="20" viewBox="0 0 16 20" fill="none" xmlns="http://www.w3.org/2000/svg">
<path d="M8 0.833336L14.8475 2.355C15.0326 2.39614 15.198 2.49914 15.3167 2.64701C15.4353 2.79487 15.5 2.97877 15.5 3.16834V11.4908C15.4999 12.3139 15.2967 13.1243 14.9082 13.85C14.5198 14.5757 13.9582 15.1943 13.2733 15.6508L8 19.1667L2.72667 15.6508C2.04189 15.1944 1.48038 14.5759 1.09196 13.8504C0.70353 13.1248 0.500197 12.3146 0.5 11.4917V3.16834C0.500033 2.97877 0.564698 2.79487 0.683325 2.64701C0.801951 2.49914 0.967447 2.39614 1.1525 2.355L8 0.833336ZM8 5.83334C7.63312 5.83335 7.2765 5.95442 6.98544 6.17777C6.69439 6.40111 6.48515 6.71426 6.3902 7.06863C6.29524 7.42301 6.31987 7.79881 6.46026 8.13777C6.60065 8.47672 6.84895 8.75988 7.16667 8.94334V12.5H8.83333L8.83417 8.94334C9.15194 8.75985 9.40028 8.47661 9.54066 8.13757C9.68103 7.79854 9.70559 7.42265 9.61053 7.06823C9.51546 6.71381 9.30609 6.40067 9.01489 6.17739C8.72369 5.95411 8.36695 5.83317 8 5.83334Z" fill="#25315B"/>
</svg>
