<svg width="17" height="17" viewBox="0 0 17 17" fill="none" xmlns="http://www.w3.org/2000/svg">
<path d="M12.8533 0.333496H3.81333C3.31256 0.333496 2.81669 0.432131 2.35403 0.623769C1.89138 0.815407 1.471 1.09629 1.1169 1.4504C0.401761 2.16553 0 3.13547 0 4.14683V13.1868C0 14.1982 0.401761 15.1681 1.1169 15.8833C1.471 16.2374 1.89138 16.5183 2.35403 16.7099C2.81669 16.9015 3.31256 17.0002 3.81333 17.0002H12.8533C13.8647 17.0002 14.8346 16.5984 15.5498 15.8833C16.2649 15.1681 16.6667 14.1982 16.6667 13.1868V4.14683C16.6667 3.13547 16.2649 2.16553 15.5498 1.4504C14.8346 0.735257 13.8647 0.333496 12.8533 0.333496ZM7.33333 13.9268L1.73333 8.84016L2.94667 7.50683L7.16667 11.3335L13.9067 3.3335L15.28 4.50016L7.33333 13.9268Z" fill="#25315B"/>
</svg>
