<svg width="16" height="20" viewBox="0 0 16 20" fill="none" xmlns="http://www.w3.org/2000/svg">
<path d="M8 0.833008L14.8475 2.35467C15.0326 2.39581 15.198 2.49881 15.3167 2.64668C15.4353 2.79454 15.5 2.97844 15.5 3.16801V11.4905C15.4999 12.3136 15.2967 13.124 14.9082 13.8497C14.5198 14.5754 13.9582 15.194 13.2733 15.6505L8 19.1663L2.72667 15.6505C2.04189 15.194 1.48038 14.5756 1.09196 13.85C0.70353 13.1245 0.500197 12.3143 0.5 11.4913V3.16801C0.500033 2.97844 0.564698 2.79454 0.683325 2.64668C0.801951 2.49881 0.967447 2.39581 1.1525 2.35467L8 0.833008ZM8 5.83301C7.63312 5.83302 7.2765 5.95409 6.98544 6.17744C6.69439 6.40079 6.48515 6.71393 6.3902 7.0683C6.29524 7.42268 6.31987 7.79848 6.46026 8.13744C6.60065 8.47639 6.84895 8.75955 7.16667 8.94301V12.4997H8.83333L8.83417 8.94301C9.15194 8.75952 9.40028 8.47628 9.54066 8.13725C9.68103 7.79821 9.70559 7.42232 9.61053 7.0679C9.51546 6.71348 9.30609 6.40034 9.01489 6.17706C8.72369 5.95378 8.36695 5.83284 8 5.83301Z" fill="#25315B"/>
</svg>
