<svg width="17" height="22" viewBox="0 0 17 22" fill="none" xmlns="http://www.w3.org/2000/svg">
<path d="M3.01686 0.507812C2.46875 0.507813 1.94308 0.72555 1.55551 1.11313C1.16793 1.5007 0.950195 2.02636 0.950195 2.57448V19.2828C0.950193 19.5538 1.00371 19.8222 1.10767 20.0724C1.21163 20.3227 1.36399 20.55 1.55601 20.7412C1.74803 20.9325 1.97592 21.0839 2.22661 21.1869C2.4773 21.2898 2.74586 21.3422 3.01686 21.3411H16.5585V0.507812H3.01686ZM15.5169 20.5078H3.27519C2.98047 20.5078 2.6977 20.3913 2.48852 20.1837C2.27935 19.9761 2.16073 19.6942 2.15853 19.3995V18.7328C2.15853 18.4367 2.27618 18.1526 2.48559 17.9432C2.69501 17.7338 2.97904 17.6161 3.27519 17.6161H15.5502L15.5169 20.5078Z" fill="#25315B"/>
</svg>
