<svg width="20" height="19" viewBox="0 0 20 19" fill="none" xmlns="http://www.w3.org/2000/svg">
<path d="M9.20361 19C10.3627 19 11.3029 18.1047 11.3029 17H7.1043C7.1043 18.1047 8.04451 19 9.20361 19ZM16.2721 14.3216C15.6381 13.6728 14.4517 12.6969 14.4517 9.5C14.4517 7.07188 12.6639 5.12812 10.2531 4.65125V4C10.2531 3.44781 9.78317 3 9.20361 3C8.62406 3 8.15412 3.44781 8.15412 4V4.65125C5.74337 5.12812 3.95549 7.07188 3.95549 9.5C3.95549 12.6969 2.76915 13.6728 2.13512 14.3216C1.93821 14.5231 1.85092 14.7641 1.85256 15C1.85617 15.5125 2.27853 16 2.90599 16H15.5012C16.1287 16 16.5514 15.5125 16.5547 15C16.5563 14.7641 16.469 14.5228 16.2721 14.3216Z" fill="#25315B"/>
<path d="M14.4542 8.75C16.5733 8.75 18.3546 7.10523 18.3546 5C18.3546 2.89477 16.5733 1.25 14.4542 1.25C12.335 1.25 10.5537 2.89477 10.5537 5C10.5537 7.10523 12.335 8.75 14.4542 8.75Z" fill="#6CFFD5" stroke="#F7F8FC" stroke-width="1.5"/>
</svg>
