<svg width="15" height="15" viewBox="0 0 15 15" fill="none" xmlns="http://www.w3.org/2000/svg">
<path d="M6.37748 0.727568C6.83651 -0.242523 8.1635 -0.242523 8.62252 0.727568L10.2616 4.19031L13.9271 4.74539C14.9537 4.90026 15.3635 6.21575 14.6207 6.97095L11.9684 9.66632L12.5943 13.4719C12.7696 14.5376 11.6963 15.3511 10.7782 14.8465L7.5 13.0508L4.22175 14.8474C3.30371 15.3503 2.2296 14.5376 2.4057 13.4719L3.03164 9.66632L0.379328 6.97095C-0.363452 6.21575 0.0463282 4.90026 1.07287 4.74539L4.73836 4.18944L6.37748 0.726697V0.727568ZM7.5 2.28841L6.13796 5.16475C6.04803 5.35447 5.91519 5.51854 5.7509 5.64282C5.5866 5.76711 5.39578 5.84788 5.19488 5.87818L2.14948 6.34017L4.35362 8.57964C4.49894 8.7274 4.60762 8.90977 4.67028 9.11106C4.73295 9.31234 4.74772 9.52649 4.71332 9.73505L4.19338 12.8968L6.91746 11.4038C7.09711 11.3053 7.29704 11.2539 7.5 11.2539C7.70297 11.2539 7.90289 11.3053 8.08254 11.4038L10.8066 12.8968L10.2867 9.73505C10.2523 9.52649 10.2671 9.31234 10.3297 9.11106C10.3924 8.90977 10.5011 8.7274 10.6464 8.57964L12.8497 6.34017L9.80429 5.87905C9.60353 5.84862 9.41288 5.76779 9.24874 5.64351C9.0846 5.51923 8.9519 5.35523 8.86204 5.16562L7.5 2.28841Z" fill="#25315B"/>
</svg>
