<svg width="20" height="20" viewBox="0 0 20 20" fill="none" xmlns="http://www.w3.org/2000/svg">
<path d="M13.8939 1.3804C14.5063 0.769035 15.3322 0.419268 16.1974 0.404795C17.0627 0.390322 17.8997 0.712273 18.5323 1.30282C19.1648 1.89336 19.5435 2.70638 19.5884 3.57057C19.6333 4.43477 19.341 5.28266 18.7731 5.9356L18.6171 6.1036L7.0899 17.6308C6.84419 17.8762 6.54819 18.0653 6.2223 18.1852L6.0243 18.2488L1.1583 19.576C1.06404 19.602 0.964865 19.6045 0.869399 19.5834C0.773934 19.5623 0.685072 19.5182 0.610547 19.4549C0.536023 19.3916 0.478093 19.3111 0.441798 19.2203C0.405504 19.1295 0.391945 19.0312 0.402301 18.934L0.421501 18.838L1.7487 13.9732C1.8399 13.6372 2.0031 13.3252 2.2263 13.0612L2.3667 12.9076L13.8939 1.3804ZM12.8619 4.1104L3.2151 13.756C3.10488 13.8664 3.01724 13.9973 2.9571 14.1412L2.9067 14.2888L1.8543 18.1408L5.7087 17.0908C5.8091 17.0634 5.90551 17.0231 5.9955 16.9708L6.1239 16.8844L6.2415 16.7824L15.8871 7.1344L12.8619 4.1104ZM17.7687 2.2288C17.3913 1.85116 16.8864 1.62824 16.3531 1.60381C15.8198 1.57939 15.2966 1.75523 14.8863 2.0968L14.7423 2.2288L13.7103 3.2608L16.7343 6.2872L17.7687 5.2552C18.1463 4.87783 18.3693 4.37292 18.3937 3.8396C18.4181 3.30629 18.2423 2.78311 17.9007 2.3728L17.7687 2.2288Z" fill="black"/>
</svg>
